<?xml version="1.0" encoding="UTF-8"?>
<svg id="Layer_2" data-name="Layer 2" xmlns="http://www.w3.org/2000/svg" viewBox="0 0 1346.03 264.85">
  <defs>
    <style>
      .cls-1 {
        fill: #36454f;
      }

      .cls-1, .cls-2 {
        stroke-width: 0px;
      }

      .cls-2 {
        fill: #3c4142;
      }
    </style>
  </defs>
  <g id="Layer_1-2" data-name="Layer 1">
    <g>
      <path class="cls-2" d="M0,182.3L36.46,0h70.84c22.22,0,39.32,4.82,51.3,14.45,11.98,9.64,17.97,23.14,17.97,40.5,0,15.11-3.52,28.26-10.55,39.46s-17.06,19.75-30.08,25.65c-13.02,5.9-28.39,8.85-46.1,8.85H29.95l17.71-15.11-13.54,68.49H0ZM46.88,117.71l-11.46-16.67h55.21c16.32,0,29.04-3.65,38.15-10.94,9.11-7.29,13.67-17.88,13.67-31.77,0-10.07-3.39-17.53-10.16-22.4-6.77-4.86-16.32-7.29-28.65-7.29h-53.13l17.71-16.93-21.36,105.99ZM120.06,182.3l-37.24-66.15h35.68l37.24,66.15h-35.68Z"/>
      <path class="cls-2" d="M164.59,182.3L283.34,0h33.33l45.31,182.3h-33.6l-38.28-164.85h13.54l-102.87,164.85h-36.2ZM210.68,140.11l14.58-26.56h98.18l4.43,26.56h-117.19Z"/>
    </g>
    <path class="cls-2" d="M455.9,128.91l5.57-27.87h-25.81l14.59-72.4h38.83c12.33,0,21.88,2.43,28.65,7.29,6.77,4.86,10.16,12.33,10.16,22.4,0,13.89-4.56,24.48-13.67,31.77-3.7,2.96-8,5.31-12.89,7.07l-11.47,57.36,3.93,6.99,23.94-20.86-9.01-16.01c4.44-1.26,8.66-2.79,12.66-4.6,13.02-5.9,23.05-14.45,30.08-25.65,7.03-11.2,10.55-24.35,10.55-39.46,0-17.36-5.99-30.86-17.97-40.5-11.98-9.64-29.08-14.45-51.3-14.45h-70.84l-36.46,182.3h34.12l10.56-53.39h25.8Z"/>
    <g>
      <polyline class="cls-2" points="718.25 153.65 707.74 153.65 702.01 182.3 712.52 182.3"/>
      <polygon class="cls-2" points="575.8 182.3 662.64 182.3 668.37 153.65 615.12 153.65 625.12 103.65 678.37 103.65 683.94 75.78 636.96 75.78 588.69 117.85 575.8 182.3"/>
      <polygon class="cls-2" points="612.25 0 599.17 65.43 607.14 58.48 634.15 58.48 640.12 28.65 739.6 28.65 745.33 0 612.25 0"/>
    </g>
    <g>
      <path class="cls-1" d="M434.43,261.98l40.18-200.92h37.03l-40.18,200.92h-37.03ZM478.06,214.04l4.88-44.2,124.86-108.78h47.07l-107.06,93.28-23.82,19.81-45.93,39.9ZM577.09,261.98l-61.43-91.56,25.26-25.55,78.07,117.11h-41.91Z"/>
      <path class="cls-1" d="M643.68,261.98l40.18-200.92h37.31l-40.18,200.92h-37.32Z"/>
      <path class="cls-1" d="M837.13,264.85c-20.48,0-37.99-3.59-52.53-10.76-14.54-7.18-25.69-17.22-33.44-30.14-7.75-12.92-11.62-27.89-11.62-44.92s2.92-32.58,8.75-47.22c5.84-14.64,14.21-27.51,25.12-38.61,10.91-11.1,23.92-19.71,39.04-25.83,15.11-6.12,32.15-9.18,51.09-9.18,17.22,0,32.43,2.87,45.64,8.61,13.2,5.74,23.34,14.06,30.43,24.97l-26.98,22.68c-5.55-7.65-12.58-13.49-21.1-17.51-8.52-4.02-18.8-6.03-30.86-6.03-12.82,0-24.4,2.2-34.73,6.6-10.33,4.4-19.14,10.58-26.41,18.51-7.27,7.94-12.87,17.08-16.79,27.41-3.92,10.33-5.88,21.43-5.88,33.3,0,10.91,2.39,20.57,7.18,28.99,4.78,8.42,11.91,14.93,21.38,19.52s21,6.89,34.59,6.89c11.29,0,21.72-1.96,31.29-5.88,9.57-3.92,18.18-9.8,25.83-17.65l22.1,23.82c-9.76,11.1-21.72,19.28-35.88,24.54-14.16,5.26-29.56,7.89-46.21,7.89Z"/>
      <path class="cls-1" d="M943.9,261.98l40.18-200.92h37.03l-40.18,200.92h-37.03ZM987.53,214.04l4.88-44.2,124.86-108.78h47.07l-107.06,93.28-23.82,19.81-45.93,39.9ZM1086.56,261.98l-61.43-91.56,25.26-25.55,78.07,117.11h-41.91Z"/>
      <path class="cls-1" d="M1137.07,261.98l5.45-24.97,159.88-158.44,3.44,14.06h-131.46l6.32-31.57h165.33l-5.17,24.97-160.16,158.44-3.16-14.07h138.06l-6.6,31.57h-171.93Z"/>
    </g>
  </g>
</svg>