<?xml version="1.0" encoding="utf-8"?>
<!-- Generator: Adobe Illustrator 28.2.0, SVG Export Plug-In . SVG Version: 6.00 Build 0)  -->
<svg version="1.1" id="Layer_1" xmlns="http://www.w3.org/2000/svg" xmlns:xlink="http://www.w3.org/1999/xlink" x="0px" y="0px"
	 viewBox="0 0 1920 1080" style="enable-background:new 0 0 1920 1080;" xml:space="preserve">
<style type="text/css">
	.st0{fill:#3C4142;}
	.st1{fill:#36454F;}
</style>
<path class="st0" d="M703.6,533.2l22.3-111.6H622.5l58.4-289.9h155.5c49.4,0,87.6,9.7,114.7,29.2c27.1,19.5,40.7,49.4,40.7,89.7
	c0,55.6-18.2,98-54.7,127.2c-14.8,11.8-32,21.3-51.6,28.3l-45.9,229.7l15.8,28l95.8-83.5L915,516.1c17.8-5,34.7-11.2,50.7-18.4
	c52.1-23.6,92.3-57.9,120.4-102.7s42.2-97.5,42.2-158c0-69.5-24-123.6-72-162.1C1008.5,36.3,940,17,851,17H567.4l-146,729.9H558
	l42.3-213.8H703.6z"/>
<path class="st1" d="M617.6,1066l160.9-804.5h148.3L765.9,1066H617.6z M792.3,874.1l19.5-177l500-435.6h188.5L1071.6,635l-95.4,79.3
	L792.3,874.1z M1188.8,1066l-246-366.6L1044,597.1l312.6,468.9H1188.8z"/>
</svg>
